<svg width="137" height="37" viewBox="0 0 137 37" fill="none" xmlns="http://www.w3.org/2000/svg">
<path d="M17.232 36.48C14.192 36.48 11.568 35.984 9.36 34.992C7.184 33.968 5.488 32.496 4.272 30.576C3.088 28.624 2.432 26.256 2.304 23.472C2.272 22.096 2.256 20.64 2.256 19.104C2.256 17.536 2.272 16.048 2.304 14.64C2.432 11.92 3.104 9.616 4.32 7.728C5.536 5.84 7.248 4.4 9.456 3.408C11.664 2.416 14.256 1.92 17.232 1.92C19.632 1.92 21.76 2.224 23.616 2.832C25.472 3.408 27.024 4.192 28.272 5.184C29.552 6.176 30.512 7.264 31.152 8.448C31.824 9.632 32.176 10.8 32.208 11.952C32.24 12.24 32.144 12.48 31.92 12.672C31.728 12.864 31.488 12.96 31.2 12.96H24.192C23.84 12.96 23.568 12.912 23.376 12.816C23.216 12.688 23.072 12.512 22.944 12.288C22.72 11.808 22.384 11.312 21.936 10.8C21.52 10.256 20.928 9.792 20.16 9.408C19.424 9.024 18.448 8.832 17.232 8.832C15.408 8.832 13.968 9.312 12.912 10.272C11.888 11.232 11.328 12.768 11.232 14.88C11.136 17.632 11.136 20.416 11.232 23.232C11.328 25.472 11.92 27.088 13.008 28.08C14.096 29.072 15.536 29.568 17.328 29.568C18.544 29.568 19.616 29.36 20.544 28.944C21.504 28.528 22.256 27.888 22.8 27.024C23.344 26.128 23.616 24.992 23.616 23.616V22.704H19.104C18.752 22.704 18.448 22.592 18.192 22.368C17.968 22.112 17.856 21.808 17.856 21.456V17.904C17.856 17.552 17.968 17.264 18.192 17.04C18.448 16.784 18.752 16.656 19.104 16.656H31.2C31.552 16.656 31.84 16.784 32.064 17.04C32.288 17.264 32.4 17.552 32.4 17.904V23.376C32.4 26.128 31.776 28.48 30.528 30.432C29.28 32.384 27.504 33.888 25.2 34.944C22.928 35.968 20.272 36.48 17.232 36.48ZM49.1869 36.48C46.4989 36.48 44.2269 36.048 42.3709 35.184C40.5469 34.32 39.1389 33.088 38.1469 31.488C37.1869 29.856 36.6429 27.92 36.5149 25.68C36.4829 25.04 36.4669 24.32 36.4669 23.52C36.4669 22.688 36.4829 21.968 36.5149 21.36C36.6429 19.088 37.2189 17.152 38.2429 15.552C39.2669 13.952 40.6909 12.72 42.5149 11.856C44.3709 10.992 46.5949 10.56 49.1869 10.56C51.8109 10.56 54.0349 10.992 55.8589 11.856C57.7149 12.72 59.1549 13.952 60.1789 15.552C61.2029 17.152 61.7789 19.088 61.9069 21.36C61.9389 21.968 61.9549 22.688 61.9549 23.52C61.9549 24.32 61.9389 25.04 61.9069 25.68C61.7789 27.92 61.2189 29.856 60.2269 31.488C59.2669 33.088 57.8589 34.32 56.0029 35.184C54.1789 36.048 51.9069 36.48 49.1869 36.48ZM49.1869 30.624C50.6269 30.624 51.6669 30.192 52.3069 29.328C52.9789 28.464 53.3629 27.168 53.4589 25.44C53.4909 24.96 53.5069 24.32 53.5069 23.52C53.5069 22.72 53.4909 22.08 53.4589 21.6C53.3629 19.904 52.9789 18.624 52.3069 17.76C51.6669 16.864 50.6269 16.416 49.1869 16.416C47.7789 16.416 46.7389 16.864 46.0669 17.76C45.3949 18.624 45.0269 19.904 44.9629 21.6C44.9309 22.08 44.9149 22.72 44.9149 23.52C44.9149 24.32 44.9309 24.96 44.9629 25.44C45.0269 27.168 45.3949 28.464 46.0669 29.328C46.7389 30.192 47.7789 30.624 49.1869 30.624ZM67.8758 36C67.5238 36 67.2358 35.888 67.0117 35.664C66.7878 35.44 66.6758 35.152 66.6758 34.8V3.12C66.6758 2.768 66.7878 2.48 67.0117 2.256C67.2358 2.032 67.5238 1.92 67.8758 1.92H73.5398C73.8918 1.92 74.1798 2.032 74.4038 2.256C74.6278 2.48 74.7398 2.768 74.7398 3.12V34.8C74.7398 35.152 74.6278 35.44 74.4038 35.664C74.1798 35.888 73.8918 36 73.5398 36H67.8758ZM87.8981 36.48C86.1701 36.48 84.6181 36.16 83.2421 35.52C81.8981 34.848 80.8261 33.952 80.0261 32.832C79.2261 31.712 78.8261 30.448 78.8261 29.04C78.8261 26.768 79.7541 24.976 81.6101 23.664C83.4661 22.32 85.9301 21.408 89.0021 20.928L95.0021 20.016V19.344C95.0021 18.192 94.7621 17.312 94.2821 16.704C93.8021 16.096 92.9221 15.792 91.6421 15.792C90.7461 15.792 90.0101 15.968 89.4341 16.32C88.8901 16.672 88.4581 17.152 88.1381 17.76C87.8501 18.176 87.4501 18.384 86.9381 18.384H81.5621C81.2101 18.384 80.9381 18.288 80.7461 18.096C80.5541 17.872 80.4741 17.616 80.5061 17.328C80.5061 16.752 80.7141 16.096 81.1301 15.36C81.5781 14.592 82.2501 13.84 83.1461 13.104C84.0421 12.368 85.1941 11.76 86.6021 11.28C88.0101 10.8 89.7061 10.56 91.6901 10.56C93.7701 10.56 95.5461 10.8 97.0181 11.28C98.4901 11.76 99.6741 12.432 100.57 13.296C101.498 14.16 102.186 15.184 102.634 16.368C103.082 17.52 103.306 18.8 103.306 20.208V34.8C103.306 35.152 103.178 35.44 102.922 35.664C102.698 35.888 102.426 36 102.106 36H96.5381C96.1861 36 95.8981 35.888 95.6741 35.664C95.4501 35.44 95.3381 35.152 95.3381 34.8V33.12C94.9221 33.728 94.3621 34.288 93.6581 34.8C92.9541 35.312 92.1221 35.712 91.1621 36C90.2341 36.32 89.1461 36.48 87.8981 36.48ZM90.1541 31.008C91.0821 31.008 91.9141 30.816 92.6501 30.432C93.4181 30.016 94.0101 29.392 94.4261 28.56C94.8741 27.696 95.0981 26.624 95.0981 25.344V24.672L91.0181 25.392C89.5141 25.648 88.4101 26.048 87.7061 26.592C87.0341 27.104 86.6981 27.712 86.6981 28.416C86.6981 28.96 86.8581 29.424 87.1781 29.808C87.4981 30.192 87.9141 30.496 88.4261 30.72C88.9381 30.912 89.5141 31.008 90.1541 31.008ZM109.923 36C109.571 36 109.283 35.888 109.059 35.664C108.835 35.44 108.723 35.152 108.723 34.8V12.24C108.723 11.888 108.835 11.6 109.059 11.376C109.283 11.152 109.571 11.04 109.923 11.04H115.443C115.795 11.04 116.083 11.152 116.307 11.376C116.531 11.6 116.643 11.888 116.643 12.24V14.064C117.475 13.072 118.563 12.24 119.907 11.568C121.251 10.896 122.835 10.56 124.659 10.56C126.515 10.56 128.147 10.976 129.555 11.808C130.995 12.64 132.115 13.872 132.915 15.504C133.747 17.104 134.163 19.072 134.163 21.408V34.8C134.163 35.152 134.035 35.44 133.779 35.664C133.555 35.888 133.283 36 132.963 36H126.915C126.595 36 126.307 35.888 126.051 35.664C125.827 35.44 125.715 35.152 125.715 34.8V21.696C125.715 20.192 125.347 19.04 124.611 18.24C123.907 17.408 122.851 16.992 121.443 16.992C120.131 16.992 119.075 17.408 118.275 18.24C117.507 19.04 117.123 20.192 117.123 21.696V34.8C117.123 35.152 116.995 35.44 116.739 35.664C116.515 35.888 116.243 36 115.923 36H109.923Z" fill="#DB0330"/>
<path d="M83.7032 8C83.6366 8 83.5799 7.98 83.5332 7.94C83.4932 7.89333 83.4732 7.83667 83.4732 7.77V1.89H81.5532C81.4866 1.89 81.4299 1.87 81.3832 1.83C81.3432 1.78333 81.3232 1.72667 81.3232 1.66V1.24C81.3232 1.16667 81.3432 1.11 81.3832 1.07C81.4299 1.02333 81.4866 1 81.5532 1H86.3732C86.4466 1 86.5032 1.02333 86.5432 1.07C86.5899 1.11 86.6132 1.16667 86.6132 1.24V1.66C86.6132 1.72667 86.5899 1.78333 86.5432 1.83C86.5032 1.87 86.4466 1.89 86.3732 1.89H84.4632V7.77C84.4632 7.83667 84.4399 7.89333 84.3932 7.94C84.3532 7.98 84.2966 8 84.2232 8H83.7032ZM88.9643 8C88.8909 8 88.8343 7.98 88.7943 7.94C88.7543 7.89333 88.7343 7.83667 88.7343 7.77V1.24C88.7343 1.16667 88.7543 1.11 88.7943 1.07C88.8343 1.02333 88.8909 1 88.9643 1H93.0943C93.1676 1 93.2243 1.02333 93.2643 1.07C93.3043 1.11 93.3243 1.16667 93.3243 1.24V1.62C93.3243 1.69333 93.3043 1.75 93.2643 1.79C93.2243 1.83 93.1676 1.85 93.0943 1.85H89.6943V4.04H92.8743C92.9476 4.04 93.0043 4.06333 93.0443 4.11C93.0843 4.15 93.1043 4.20667 93.1043 4.28V4.65C93.1043 4.71667 93.0843 4.77333 93.0443 4.82C93.0043 4.86 92.9476 4.88 92.8743 4.88H89.6943V7.15H93.1743C93.2476 7.15 93.3043 7.17 93.3443 7.21C93.3843 7.25 93.4043 7.30667 93.4043 7.38V7.77C93.4043 7.83667 93.3843 7.89333 93.3443 7.94C93.3043 7.98 93.2476 8 93.1743 8H88.9643ZM96.0287 8C95.9554 8 95.8987 7.98 95.8587 7.94C95.8187 7.89333 95.7987 7.83667 95.7987 7.77V1.23C95.7987 1.16333 95.8187 1.11 95.8587 1.07C95.8987 1.02333 95.9554 1 96.0287 1H96.5587C96.6254 1 96.6787 1.02333 96.7187 1.07C96.7587 1.11 96.7787 1.16333 96.7787 1.23V7.13H100.109C100.182 7.13 100.239 7.15333 100.279 7.2C100.319 7.24 100.339 7.29667 100.339 7.37V7.77C100.339 7.83667 100.319 7.89333 100.279 7.94C100.239 7.98 100.182 8 100.109 8H96.0287ZM102.663 8C102.59 8 102.533 7.98 102.493 7.94C102.453 7.89333 102.433 7.83667 102.433 7.77V1.24C102.433 1.16667 102.453 1.11 102.493 1.07C102.533 1.02333 102.59 1 102.663 1H106.793C106.867 1 106.923 1.02333 106.963 1.07C107.003 1.11 107.023 1.16667 107.023 1.24V1.62C107.023 1.69333 107.003 1.75 106.963 1.79C106.923 1.83 106.867 1.85 106.793 1.85H103.393V4.04H106.573C106.647 4.04 106.703 4.06333 106.743 4.11C106.783 4.15 106.803 4.20667 106.803 4.28V4.65C106.803 4.71667 106.783 4.77333 106.743 4.82C106.703 4.86 106.647 4.88 106.573 4.88H103.393V7.15H106.873C106.947 7.15 107.003 7.17 107.043 7.21C107.083 7.25 107.103 7.30667 107.103 7.38V7.77C107.103 7.83667 107.083 7.89333 107.043 7.94C107.003 7.98 106.947 8 106.873 8H102.663ZM111.95 8.1C111.336 8.1 110.826 7.98667 110.42 7.76C110.02 7.53333 109.716 7.21667 109.51 6.81C109.303 6.40333 109.19 5.93 109.17 5.39C109.163 5.11667 109.16 4.82333 109.16 4.51C109.16 4.19667 109.163 3.89667 109.17 3.61C109.19 3.07 109.303 2.59667 109.51 2.19C109.716 1.78333 110.02 1.46667 110.42 1.24C110.826 1.01333 111.336 0.9 111.95 0.9C112.41 0.9 112.813 0.963333 113.16 1.09C113.506 1.21667 113.793 1.38667 114.02 1.6C114.253 1.81333 114.43 2.05333 114.55 2.32C114.67 2.58 114.736 2.85 114.75 3.13C114.756 3.19 114.736 3.24 114.69 3.28C114.65 3.32 114.6 3.34 114.54 3.34H113.99C113.93 3.34 113.876 3.32333 113.83 3.29C113.79 3.25667 113.76 3.19667 113.74 3.11C113.626 2.59 113.413 2.23333 113.1 2.04C112.793 1.84667 112.406 1.75 111.94 1.75C111.406 1.75 110.983 1.90333 110.67 2.21C110.356 2.51 110.186 2.99333 110.16 3.66C110.14 4.20667 110.14 4.76667 110.16 5.34C110.186 6.00667 110.356 6.49333 110.67 6.8C110.983 7.1 111.406 7.25 111.94 7.25C112.406 7.25 112.793 7.15333 113.1 6.96C113.413 6.76667 113.626 6.41 113.74 5.89C113.76 5.80333 113.79 5.74333 113.83 5.71C113.876 5.67667 113.93 5.66 113.99 5.66H114.54C114.6 5.66 114.65 5.68 114.69 5.72C114.736 5.76 114.756 5.81 114.75 5.87C114.736 6.15 114.67 6.42333 114.55 6.69C114.43 6.95 114.253 7.18667 114.02 7.4C113.793 7.61333 113.506 7.78333 113.16 7.91C112.813 8.03667 112.41 8.1 111.95 8.1ZM119.6 8.1C119.033 8.1 118.546 8.00333 118.14 7.81C117.733 7.61 117.42 7.30667 117.2 6.9C116.98 6.48667 116.856 5.97 116.83 5.35C116.823 5.05667 116.82 4.77667 116.82 4.51C116.82 4.23667 116.823 3.95333 116.83 3.66C116.856 3.04667 116.983 2.53667 117.21 2.13C117.443 1.71667 117.763 1.41 118.17 1.21C118.583 1.00333 119.06 0.9 119.6 0.9C120.146 0.9 120.623 1.00333 121.03 1.21C121.443 1.41 121.766 1.71667 122 2.13C122.233 2.53667 122.36 3.04667 122.38 3.66C122.393 3.95333 122.4 4.23667 122.4 4.51C122.4 4.77667 122.393 5.05667 122.38 5.35C122.36 5.97 122.236 6.48667 122.01 6.9C121.79 7.30667 121.476 7.61 121.07 7.81C120.663 8.00333 120.173 8.1 119.6 8.1ZM119.6 7.25C120.113 7.25 120.53 7.09667 120.85 6.79C121.176 6.48333 121.353 5.98667 121.38 5.3C121.393 5 121.4 4.73333 121.4 4.5C121.4 4.26 121.393 3.99333 121.38 3.7C121.366 3.24 121.28 2.86667 121.12 2.58C120.966 2.29333 120.76 2.08333 120.5 1.95C120.24 1.81667 119.94 1.75 119.6 1.75C119.273 1.75 118.98 1.81667 118.72 1.95C118.46 2.08333 118.25 2.29333 118.09 2.58C117.936 2.86667 117.85 3.24 117.83 3.7C117.823 3.99333 117.82 4.26 117.82 4.5C117.82 4.73333 117.823 5 117.83 5.3C117.856 5.98667 118.033 6.48333 118.36 6.79C118.686 7.09667 119.1 7.25 119.6 7.25ZM125.087 8C125.021 8 124.964 7.98 124.917 7.94C124.877 7.89333 124.857 7.83667 124.857 7.77V1.24C124.857 1.16667 124.877 1.11 124.917 1.07C124.964 1.02333 125.021 1 125.087 1H125.587C125.667 1 125.727 1.02 125.767 1.06C125.807 1.1 125.831 1.13333 125.837 1.16L127.957 5.2L130.087 1.16C130.101 1.13333 130.124 1.1 130.157 1.06C130.197 1.02 130.257 1 130.337 1H130.827C130.901 1 130.957 1.02333 130.997 1.07C131.044 1.11 131.067 1.16667 131.067 1.24V7.77C131.067 7.83667 131.044 7.89333 130.997 7.94C130.957 7.98 130.901 8 130.827 8H130.337C130.271 8 130.214 7.98 130.167 7.94C130.127 7.89333 130.107 7.83667 130.107 7.77V2.85L128.437 6.11C128.411 6.17667 128.371 6.23 128.317 6.27C128.264 6.30333 128.197 6.32 128.117 6.32H127.807C127.721 6.32 127.651 6.30333 127.597 6.27C127.551 6.23 127.511 6.17667 127.477 6.11L125.807 2.85V7.77C125.807 7.83667 125.784 7.89333 125.737 7.94C125.697 7.98 125.644 8 125.577 8H125.087Z" fill="black"/>
</svg>
