<svg width="35" height="35" viewBox="0 0 35 35" fill="none" xmlns="http://www.w3.org/2000/svg">
<path d="M17.5 0.546875C8.1377 0.546875 0.546875 8.14044 0.546875 17.5C0.546875 26.865 8.1377 34.4531 17.5 34.4531C26.8623 34.4531 34.4531 26.865 34.4531 17.5C34.4531 8.14044 26.8623 0.546875 17.5 0.546875ZM17.5 31.1719C9.9441 31.1719 3.82812 25.0584 3.82812 17.5C3.82812 9.94663 9.94438 3.82812 17.5 3.82812C25.0531 3.82812 31.1719 9.94431 31.1719 17.5C31.1719 25.0558 25.0584 31.1719 17.5 31.1719ZM24.8311 13.7266C24.8311 18.3102 19.8805 18.3807 19.8805 20.0746V20.5078C19.8805 20.9608 19.5132 21.3281 19.0602 21.3281H15.9398C15.4867 21.3281 15.1195 20.9608 15.1195 20.5078V19.9159C15.1195 17.4724 16.972 16.4956 18.3719 15.7107C19.5724 15.0377 20.3081 14.58 20.3081 13.6887C20.3081 12.5098 18.8043 11.7273 17.5885 11.7273C16.0033 11.7273 15.2716 12.4776 14.2429 13.7759C13.9655 14.1259 13.4595 14.1909 13.1036 13.9211L11.2016 12.4789C10.8525 12.2142 10.7743 11.7224 11.0208 11.3603C12.636 8.98864 14.6932 7.65625 17.8961 7.65625C21.2505 7.65625 24.8311 10.2747 24.8311 13.7266ZM20.3711 25.1562C20.3711 26.7394 19.0831 28.0273 17.5 28.0273C15.9169 28.0273 14.6289 26.7394 14.6289 25.1562C14.6289 23.5731 15.9169 22.2852 17.5 22.2852C19.0831 22.2852 20.3711 23.5731 20.3711 25.1562Z" fill="#E10A14"/>
</svg>
